<svg xmlns="http://www.w3.org/2000/svg" xml:space="preserve" width="950.30286" height="300" viewBox="0 0 950.30285 300"><defs><linearGradient id="a" x1="0" x2="1" y1="0" y2="0" gradientTransform="matrix(65.94943 0 0 -65.94943 188.005 625.933)" gradientUnits="userSpaceOnUse" spreadMethod="pad"><stop offset="0" style="stop-opacity:1;stop-color:#04a2e7"/><stop offset="0.005618" style="stop-opacity:1;stop-color:#04a2e7"/><stop offset="0.75" style="stop-opacity:1;stop-color:#15366f"/><stop offset="1" style="stop-opacity:1;stop-color:#15366f"/></linearGradient></defs><path d="M206.416 715.57c-9.198 0-10.602 3.355-8.993 10.516 1.602 7.161 13.678 53.773 13.678 53.773h-27.64s-12.252-45.103-14.757-56.603c-3.408-15.637 4.574-31.607 29.063-31.734 15.599-.073 58.375 0 58.375 0l6.348 24.048z" style="fill:#15366f;fill-opacity:1;fill-rule:nonzero;stroke:none;stroke-width:1.8352" transform="matrix(1.33333 0 0 -1.33333 0 1122.52)"/><path d="m210.088 632.649-.012-.046c-10.07 0-17.13-5.48-22.07-13.386h65.273l3.618 13.432z" style="fill:url(#a);stroke:none;stroke-width:1.36087" transform="matrix(1.79807 0 0 -1.79807 -233.684 1220.117)"/><path d="M231.367 608.242c-11.676 0-46.356-.014-46.356-.014.602-7.893 8.04-14.958 19.551-14.958h18.726c.106 0 .21-.01.313-.015.167-.005.329-.025.488-.05.12-.018.237-.041.351-.066 1.76-.445 2.839-2.09 2.488-4.063-.252-1.446-1.209-2.72-2.452-3.473-.961-.565-2.532-.696-3.627-.716h-.852c-.07 0-.15.004-.197.005v-.005h-17.928v-.004h-21.28l-4.705-17.814s42.677.026 43.477 0c18.56-.572 26.449 9.123 28.652 20.522 2.1 10.883-2.901 20.65-16.649 20.65" style="fill:#15366f;fill-opacity:1;fill-rule:nonzero;stroke:none;stroke-width:1.36087" transform="matrix(1.79807 0 0 -1.79807 -233.684 1220.117)"/><path d="M318.642 708.697c-2.523-9.576-9.424-10.61-12.272-10.61-2.736 0-5.47.263-6.955 2.17-1.584 2.044-1.637 5.845-.164 11.62l3.57 13.998c1.993 7.821 3.667 9.724 4.294 10.442l.237.288c.404.657 3.731 3.867 10.15 3.867 1.85 0 5.073-.654 6.108-2.063 1.204-1.639.47-4.904-.185-7.218l-.17-.584h9.208l.105.312c1.756 5.284 1.666 9.156-.27 11.84-2.081 2.886-6.222 4.288-12.656 4.288-14.212 0-22.072-5.97-25.485-19.348l-3.773-14.797c-2.015-7.895-1.674-13.432 1.042-16.93 3.147-4.049 8.616-4.388 13.953-4.388 12.256 0 19.798 5.685 22.42 16.893l.134.561h-9.201zM346.224 697.723c-2.663 0-4.34.565-5.284 1.778-1.549 1.997-1.369 6.001.628 13.825 2.505 9.827 6.566 11.842 11.888 11.842 2.764 0 4.51-.59 5.493-1.855 1.354-1.742 1.411-4.933.182-9.76-3.133-12.279-6.029-15.83-12.907-15.83m8.473 33.22c-15.764 0-19.473-9.427-22.15-19.928-1.862-7.296-1.632-12.303.702-15.305 2.573-3.316 7.376-3.762 11.734-3.762 10.248 0 17.886 3.204 21.876 18.842 1.466 5.747 2.775 12.211-.287 16.151-2.094 2.694-5.979 4.003-11.875 4.003M396.322 723.992l1.406-.178.092.393 1.721 6.737h-.59c-6.83 0-10.59-.927-14.535-5.381.4 1.567 1.185 4.656 1.185 4.656h-8.082l-9.578-37.547h8.086l5.599 21.96c1.12 4.375 4.107 9.591 12.015 9.591zM422.879 712.176c-2.553-9.993-4.893-14.452-12.037-14.452-2.118 0-3.649.59-4.548 1.749-2.018 2.596-.695 7.8-.057 10.299l.318 1.283c1.38 5.619 3.466 14.114 11.262 14.114 2.474 0 4.227-.646 5.216-1.921 2.008-2.582.76-7.488-.154-11.07zm-1.56 18.768c-4.212 0-7.583-1.426-10.806-4.411l.938 3.687h-8.082l-13.11-51.4h8.085l4.397 17.245c1.843-2.731 4.61-4.117 8.517-4.117 14.893 0 17.84 11.558 19.993 20 1.914 7.508 1.7 12.628-.651 15.66-2.327 2.99-6.409 3.336-9.281 3.336M448.916 697.723c-2.66 0-4.337.565-5.28 1.778-1.553 1.997-1.37 6.001.624 13.825 2.508 9.827 6.566 11.842 11.892 11.842 2.764 0 4.509-.59 5.493-1.855 1.35-1.742 1.41-4.933.178-9.76-3.13-12.279-6.025-15.83-12.907-15.83m8.473 33.22c-15.76 0-19.47-9.427-22.151-19.928-1.86-7.296-1.631-12.303.703-15.305 2.576-3.316 7.38-3.762 11.738-3.762 10.244 0 17.886 3.204 21.872 18.842 1.466 5.747 2.774 12.211-.287 16.151-2.094 2.694-5.975 4.003-11.875 4.003M500.42 723.814l.097.393 1.716 6.737h-.588c-6.828 0-10.59-.927-14.534-5.38.398 1.566 1.187 4.655 1.187 4.655h-8.084l-9.58-37.548h8.086l5.603 21.962c1.114 4.375 4.103 9.59 12.01 9.59l2.68-.23zM504.77 703.898c1.765 6.902 9.313 6.939 15.976 6.972 0 0 .406 0 .797.004-1.828-8.587-5.98-13.151-12.06-13.151-1.937 0-3.336.538-4.156 1.593-.839 1.077-1.033 2.703-.556 4.582m15.102 27.045c-10.21 0-15.801-3.5-18.138-11.352l-.176-.59h8.76l.058.395c.527 3.726 3.702 6.134 8.086 6.134 2.415 0 3.983-.523 4.788-1.6.5-.663.688-1.52.688-2.478 0-1.573-.515-3.417-1.016-5.153-7.682.165-22.988.33-26.065-11.74-1.113-4.362-.869-7.497.748-9.58 1.584-2.039 4.412-3.03 8.635-3.03 5.107 0 8.827 1.665 11.949 5.133l-1.125-4.41h8.853l.03.426c.218 3.102.665 6.001 1.337 8.625l4.494 17.624c.9 3.525.617 6.168-.864 8.075-1.842 2.37-5.456 3.521-11.042 3.521M550.64 698.014c-2.452 0-4.028.431-4.689 1.283-.297.382-.404.85-.404 1.354 0 .67.186 1.402.362 2.083 0 .001 4.927 19.334 5.626 22.07h9.575l1.383 5.414h-9.574l2.542 9.973-.802-.276-8.058-2.765s-1.61-6.306-1.768-6.932h-7.227l-1.378-5.414h7.225l-6.498-25.467a7.656 7.656 0 0 1-.255-1.87c0-1.077.295-2.002.882-2.756 1.294-1.665 3.908-2.474 7.99-2.474l4.358.317 3.191.294.092.316 1.326 5.2-2.158-.207zM566.515 730.219l-9.574-37.546h8.084l9.576 37.546h-.591zM579.05 745.958H570.096l-1.861-7.3h8.954zM588.649 697.723c-2.663 0-4.34.565-5.284 1.778-1.553 1.997-1.369 6.001.628 13.825 2.505 9.827 6.566 11.842 11.888 11.842 2.764 0 4.51-.59 5.493-1.855 1.354-1.74 1.411-4.933.181-9.76-3.132-12.279-6.024-15.83-12.906-15.83m8.473 33.22c-15.765 0-19.474-9.427-22.151-19.928-1.865-7.296-1.632-12.303.703-15.305 2.573-3.316 7.375-3.762 11.734-3.762 10.244 0 17.886 3.204 21.876 18.842 1.466 5.747 2.774 12.211-.29 16.153-2.09 2.692-5.976 4-11.872 4M649.464 728.048c-1.516 1.949-4.316 2.896-8.563 2.896-5.667 0-9.225-1.417-12.767-4.946.327 1.279 1.075 4.22 1.075 4.22h-8.555l-.06-.388c-.428-2.816-.918-5.293-1.5-7.572l-7.545-29.586h8.082l5.622 22.034c1.147 4.49 3.558 10.462 11.275 10.462 2.52 0 4.238-.567 5.104-1.683.826-1.059.95-2.648.387-4.854l-6.623-25.959h8.086l6.562 25.732c1.166 4.567.984 7.634-.58 9.644" style="fill:#15366f;fill-opacity:1;fill-rule:nonzero;stroke:none;stroke-width:1.8352" transform="matrix(1.33333 0 0 -1.33333 0 1122.52)"/></svg>